<?xml version="1.0" encoding="UTF-8"?> <svg xmlns="http://www.w3.org/2000/svg" width="471" height="419" viewBox="0 0 471 419" fill="none"><path opacity="0.05" d="M315.58 107.45C315.58 107.45 263.45 78.29 203.64 100.45C143.83 122.61 105.71 180.25 73.6396 226.16C41.5696 272.07 46.4496 325.16 84.0696 355.4C121.69 385.64 155.79 356.3 214.4 364.56C273.01 372.82 287.28 383.82 341.29 359.11C395.3 334.4 417.29 258.11 388.95 194.11C360.61 130.11 315.58 107.45 315.58 107.45Z" fill="#3B62B2"></path><path d="M198 280.53C198 280.53 198.81 257.39 198 254.53C197.19 251.67 174.86 231.8 174.86 231.8C174.86 231.8 168.77 190.39 158.22 181.05L72.1504 191.61C72.1504 191.61 66.0604 197.3 66.4704 215.61C66.8804 233.92 67.6904 242.4 63.2204 250.52C58.7504 258.64 54.2904 282.6 62.8204 294.78C71.3504 306.96 74.1804 309.78 81.9004 309.39C89.6204 309 198 280.53 198 280.53Z" fill="#D8E0F0"></path><path d="M198 254.54L56.7305 282.15C56.7305 282.15 59.5705 313.01 79.0605 310.15C98.5505 307.29 198.82 284.58 198.42 282.55C198.02 280.52 198 254.54 198 254.54Z" fill="#D8E0F0"></path><path d="M343.129 195.21C343.129 195.21 339.999 280.93 343.129 282.27C346.259 283.61 377.949 274.27 379.289 272C380.629 269.73 386.429 186.29 379.289 186.29C372.149 186.29 343.129 195.21 343.129 195.21Z" fill="#D8E0F0"></path><path opacity="0.7" d="M340.001 195.66C342.681 197.45 340.451 276.91 335.091 283.16C329.731 289.41 288.211 297.45 287.321 292.98C286.431 288.51 287.771 177.36 287.771 177.36C287.771 177.36 337.321 193.88 340.001 195.66ZM379.291 186.29C379.291 186.29 335.541 167.09 328.391 167.54C321.241 167.99 282.861 174.23 287.771 179.59C292.681 184.95 336.431 194.77 343.131 195.21C349.831 195.65 379.291 186.29 379.291 186.29Z" fill="#D8E0F0"></path><path d="M76.4023 191C76.4023 191 131.002 182 159.002 181C169.002 191 171.852 217.74 174.352 230.74C174.352 230.74 198.002 253.14 198.002 255C198.002 256.86 198.672 285 198.672 285" stroke="#D9D8E9" stroke-linecap="round" stroke-linejoin="round"></path><path d="M180.672 99.67V236.33" stroke="#003549" stroke-linecap="round" stroke-linejoin="round"></path><path d="M64.4922 249.52L127.662 239.25L173.242 230.74" stroke="#D9D8E9" stroke-linecap="round" stroke-linejoin="round"></path><path d="M56.2812 281.6L192.181 255.62" stroke="#D9D8E9" stroke-linecap="round" stroke-linejoin="round"></path><path d="M102 243.5C102 243.5 124 265.5 123.5 268.5L122.5 300" stroke="#D9D8E9" stroke-linecap="round" stroke-linejoin="round"></path><path d="M76.1914 310.71L190.691 285.7" stroke="#D9D8E9" stroke-linecap="round" stroke-linejoin="round"></path><path d="M288.5 236.5V178L339.5 195.5V275.5" stroke="#D9D8E9" stroke-linecap="round" stroke-linejoin="round"></path><path d="M288 241.67V297" stroke="#D9D8E9" stroke-linecap="round" stroke-linejoin="round"></path><path d="M339.5 195.5L380.5 185.5V268" stroke="#D9D8E9" stroke-linecap="round" stroke-linejoin="round"></path><path d="M288.5 178L332.5 168.5L380.5 185.5L339.5 195.5L288.5 178Z" stroke="#D9D8E9" stroke-linecap="round" stroke-linejoin="round"></path><path d="M312.5 186.5V287.67" stroke="#D9D8E9" stroke-linecap="round" stroke-linejoin="round"></path><path d="M318.57 233.42C318.57 235.28 317.75 236.79 316.75 236.79C315.75 236.79 314.93 235.28 314.93 233.42C314.93 231.56 315.74 230.05 316.75 230.05C317.76 230.05 318.57 231.56 318.57 233.42Z" fill="#003549"></path><path d="M310.001 230.3C310.001 232.17 309.191 233.68 308.181 233.68C307.171 233.68 306.371 232.17 306.371 230.3C306.371 228.43 307.181 226.93 308.181 226.93C309.181 226.93 310.001 228.44 310.001 230.3Z" fill="#003549"></path><path d="M198.672 262.33L271.332 299" stroke="#003549" stroke-linecap="round" stroke-linejoin="round"></path><path d="M291.645 0.354065H55.3516V176.813H291.645V0.354065Z" fill="#3B62B2" fill-opacity="0.4"></path><path d="M292 177.165H55V0H292V177.165ZM55.7065 176.459H291.293V0.706514H55.7065V176.459Z" fill="#003549"></path><path d="M289.14 13.0559H57.8906V174.219H289.14V13.0559Z" fill="white"></path><path d="M291.575 0.354065H55.2812V10.2806H291.575V0.354065Z" fill="#003549"></path><path d="M63.9791 8.19561C65.6179 8.19561 66.9464 6.86708 66.9464 5.22825C66.9464 3.58943 65.6179 2.26089 63.9791 2.26089C62.3403 2.26089 61.0117 3.58943 61.0117 5.22825C61.0117 6.86708 62.3403 8.19561 63.9791 8.19561Z" fill="white"></path><path d="M73.0806 8.19561C74.7195 8.19561 76.048 6.86708 76.048 5.22825C76.048 3.58943 74.7195 2.26089 73.0806 2.26089C71.4418 2.26089 70.1133 3.58943 70.1133 5.22825C70.1133 6.86708 71.4418 8.19561 73.0806 8.19561Z" fill="white"></path><path d="M85.1559 5.22826C85.1573 5.81715 84.9838 6.39319 84.6575 6.88341C84.3312 7.37364 83.8668 7.75597 83.323 7.98197C82.7792 8.20797 82.1805 8.26747 81.6029 8.15293C81.0253 8.03839 80.4946 7.75495 80.0782 7.33855C79.6618 6.92214 79.3784 6.39151 79.2638 5.81387C79.1493 5.23623 79.2088 4.63759 79.4348 4.09379C79.6608 3.55 80.0431 3.08553 80.5334 2.75924C81.0236 2.43294 81.5996 2.25951 82.1885 2.2609C82.9755 2.2609 83.7303 2.57353 84.2868 3.13002C84.8432 3.68651 85.1559 4.44127 85.1559 5.22826Z" fill="white"></path><path d="M200.803 106.232H149.079C144.904 106.232 141.52 109.616 141.52 113.791V124.764C141.52 128.939 144.904 132.323 149.079 132.323H200.803C204.978 132.323 208.363 128.939 208.363 124.764V113.791C208.363 109.616 204.978 106.232 200.803 106.232Z" fill="#D94D53"></path><path d="M200.805 132.676H149.081C146.983 132.674 144.971 131.839 143.488 130.356C142.004 128.872 141.17 126.861 141.168 124.763V113.791C141.17 111.692 142.004 109.681 143.488 108.197C144.971 106.714 146.983 105.879 149.081 105.878H200.805C202.903 105.879 204.914 106.714 206.398 108.197C207.882 109.681 208.716 111.692 208.718 113.791V124.763C208.716 126.861 207.882 128.872 206.398 130.356C204.914 131.839 202.903 132.674 200.805 132.676ZM149.081 106.584C147.17 106.584 145.337 107.343 143.985 108.695C142.634 110.046 141.874 111.879 141.874 113.791V124.763C141.874 126.674 142.634 128.507 143.985 129.858C145.337 131.21 147.17 131.969 149.081 131.969H200.805C202.716 131.969 204.549 131.21 205.9 129.858C207.252 128.507 208.011 126.674 208.011 124.763V113.791C208.011 111.879 207.252 110.046 205.9 108.695C204.549 107.343 202.716 106.584 200.805 106.584H149.081Z" fill="#003549"></path><path d="M202.231 134.923H148.162C148.068 134.923 147.978 134.886 147.912 134.82C147.846 134.754 147.809 134.664 147.809 134.57C147.809 134.476 147.846 134.386 147.912 134.32C147.978 134.254 148.068 134.217 148.162 134.217H202.231C204.376 134.215 206.433 133.362 207.949 131.845C209.466 130.329 210.319 128.272 210.321 126.127V113.375C210.321 113.281 210.358 113.191 210.424 113.125C210.491 113.059 210.58 113.021 210.674 113.021C210.768 113.021 210.858 113.059 210.924 113.125C210.99 113.191 211.027 113.281 211.027 113.375V126.127C211.026 128.459 210.098 130.696 208.449 132.345C206.8 133.994 204.564 134.921 202.231 134.923Z" fill="#003549"></path><path d="M161.422 121.005C161.46 121.517 161.298 122.023 160.969 122.418C160.605 122.732 160.14 122.905 159.659 122.905C159.178 122.905 158.713 122.732 158.348 122.418C158.02 122.023 157.858 121.517 157.896 121.005V117.091C157.858 116.579 158.02 116.072 158.348 115.678C158.711 115.359 159.177 115.184 159.659 115.184C160.141 115.184 160.607 115.359 160.969 115.678C161.298 116.072 161.46 116.579 161.422 117.091V117.797H160.305V116.992C160.305 116.497 160.1 116.25 159.691 116.25C159.281 116.25 159.076 116.497 159.076 116.992V121.061C159.076 121.549 159.281 121.768 159.691 121.768C160.1 121.768 160.305 121.528 160.305 121.061V119.981H161.422V121.005Z" fill="white"></path><path d="M163.331 115.275V121.733H165.281V122.807H162.145V115.275H163.331Z" fill="white"></path><path d="M166.977 115.275V122.807H165.797V115.275H166.977Z" fill="white"></path><path d="M171.269 121.005C171.308 121.517 171.145 122.023 170.817 122.418C170.453 122.732 169.988 122.905 169.507 122.905C169.025 122.905 168.56 122.732 168.196 122.418C167.868 122.023 167.706 121.517 167.744 121.005V117.091C167.706 116.579 167.868 116.072 168.196 115.678C168.558 115.359 169.024 115.184 169.507 115.184C169.989 115.184 170.455 115.359 170.817 115.678C171.145 116.072 171.308 116.579 171.269 117.091V117.797H170.153V116.992C170.153 116.497 169.948 116.25 169.538 116.25C169.129 116.25 168.924 116.497 168.924 116.992V121.061C168.924 121.549 169.129 121.768 169.538 121.768C169.948 121.768 170.153 121.528 170.153 121.061V119.981H171.269V121.005Z" fill="white"></path><path d="M173.152 120.503V122.814H171.965V115.275H173.152V118.554L174.699 115.275H175.886L174.24 118.631L175.886 122.807H174.671L173.519 119.804L173.152 120.503Z" fill="white"></path><path d="M178.098 122.814V115.275H179.285V118.504H180.627V115.275H181.835V122.807H180.627V119.585H179.285V122.814H178.098Z" fill="white"></path><path d="M185.527 118.455V119.514H183.895V121.726H185.944V122.8H182.715V115.275H185.944V116.349H183.895V118.469L185.527 118.455Z" fill="white"></path><path d="M189.07 122.467C189.059 122.274 189.059 122.081 189.07 121.888V120.708C189.092 120.447 189.028 120.187 188.886 119.966C188.811 119.886 188.718 119.825 188.615 119.787C188.512 119.749 188.402 119.735 188.293 119.747H187.883V122.813H186.703V115.275H188.484C188.721 115.234 188.965 115.25 189.195 115.322C189.426 115.394 189.635 115.52 189.807 115.689C189.979 115.858 190.108 116.066 190.184 116.295C190.26 116.524 190.28 116.768 190.243 117.006V117.599C190.283 117.903 190.23 118.211 190.091 118.483C189.952 118.756 189.734 118.98 189.466 119.125C189.599 119.177 189.721 119.255 189.824 119.354C189.928 119.454 190.01 119.573 190.066 119.705C190.202 120.029 190.264 120.378 190.25 120.729V121.895C190.241 122.069 190.241 122.244 190.25 122.418C190.264 122.553 190.303 122.685 190.363 122.806H189.155C189.115 122.697 189.086 122.583 189.07 122.467ZM187.862 118.673H188.328C188.424 118.681 188.521 118.668 188.612 118.636C188.703 118.605 188.787 118.555 188.858 118.49C188.992 118.314 189.055 118.095 189.035 117.875V117.133C189.051 116.925 189.002 116.718 188.893 116.54C188.836 116.476 188.764 116.427 188.685 116.395C188.605 116.363 188.52 116.35 188.434 116.356H187.862V118.673Z" fill="white"></path><path d="M193.816 118.455V119.514H192.226V121.726H194.268V122.8H191.039V115.275H194.268V116.349H192.226V118.469L193.816 118.455Z" fill="white"></path><path d="M246.833 48.1199H142.227V58.0676H246.833V48.1199Z" fill="#3B62B2" fill-opacity="0.2"></path><path d="M211.748 64.2865H142.227V74.2342H211.748V64.2865Z" fill="#3B62B2" fill-opacity="0.2"></path><path d="M211.748 82.5845H142.227V83.0845H211.748V82.5845Z" fill="#003549"></path><path d="M218.24 88.9078H142.227V89.4078H218.24V88.9078Z" fill="#003549"></path><path d="M224.726 95.2311H142.227V95.7311H224.726V95.2311Z" fill="#003549"></path><path d="M284.137 17.9595H270.996V18.666H284.137V17.9595Z" fill="#003549"></path><path d="M284.137 21.521H270.996V22.2275H284.137V21.521Z" fill="#003549"></path><path d="M284.137 25.0876H270.996V25.7942H284.137V25.0876Z" fill="#003549"></path><path d="M106.138 17.8956H84.4766V21.8732H106.138V17.8956Z" fill="#3B62B2" fill-opacity="0.2"></path><path d="M134.814 17.8956H113.152V21.8732H134.814V17.8956Z" fill="#3B62B2" fill-opacity="0.2"></path><path d="M163.486 17.8956H141.824V21.8732H163.486V17.8956Z" fill="#3B62B2" fill-opacity="0.2"></path><path d="M192.162 17.8956H170.5V21.8732H192.162V17.8956Z" fill="#3B62B2" fill-opacity="0.2"></path><path d="M78.0125 17.8956H62.2148V33.6932H78.0125V17.8956Z" fill="white"></path><path d="M78.0118 34.0262H62.2283C62.1346 34.0262 62.0447 33.989 61.9785 33.9227C61.9122 33.8565 61.875 33.7666 61.875 33.6729V17.8965C61.875 17.8028 61.9122 17.7129 61.9785 17.6467C62.0447 17.5804 62.1346 17.5432 62.2283 17.5432H78.0259C78.1196 17.5432 78.2094 17.5804 78.2757 17.6467C78.3419 17.7129 78.3792 17.8028 78.3792 17.8965V33.6941C78.3737 33.7866 78.3321 33.8732 78.2634 33.9353C78.1947 33.9974 78.1043 34.03 78.0118 34.0262ZM62.5674 33.3197H77.6585V18.2497H62.5674V33.3197Z" fill="#003549"></path><path d="M341.09 143.63C339.654 145.298 338.685 147.316 338.28 149.48L332.63 152.65V137.65L332.74 137.8L341.74 131.22C344.976 131.711 348.285 131.198 351.22 129.75C355.84 127.26 359.22 118.75 359.22 118.75C359.22 118.75 348.22 117.51 344.48 122.13C342.436 124.526 341.346 127.591 341.42 130.74L332.64 137.17V126.12C334.286 125.358 335.741 124.238 336.899 122.842C338.056 121.446 338.887 119.809 339.33 118.05C340.93 111.84 332.4 99.58 332.4 99.58C332.4 99.58 323.52 112.19 325.3 118.58C325.714 120.297 326.548 121.884 327.726 123.2C328.904 124.516 330.389 125.519 332.05 126.12V150.12L325.71 144.84C325.845 143.168 325.624 141.486 325.062 139.906C324.501 138.325 323.61 136.882 322.45 135.67C318.19 130.87 306.82 131.23 306.82 131.23C306.82 131.23 311.62 140.82 315.7 144.02C319.27 146.81 324.2 145.67 325.39 145.34L332.05 150.89V158.18H322.15L326.15 183.43H338.3L342.3 158.18H332.59V153.36L338.8 149.88C342.022 150.806 345.468 150.554 348.52 149.17C353.52 146.68 357.57 141.35 357.57 141.35C357.57 141.35 345.71 138.3 341.09 143.63Z" fill="white"></path><path d="M255.811 336L212.161 348.78C211.952 348.842 211.763 348.959 211.616 349.12C211.468 349.281 211.368 349.48 211.325 349.693C211.281 349.907 211.297 350.129 211.371 350.335C211.444 350.54 211.572 350.722 211.741 350.86L228.001 364.16C228.951 364.94 230.082 365.468 231.29 365.695C232.497 365.923 233.743 365.842 234.911 365.46L274.911 352.38C275.104 352.311 275.276 352.193 275.41 352.039C275.545 351.884 275.638 351.698 275.68 351.497C275.722 351.297 275.712 351.089 275.651 350.893C275.59 350.698 275.48 350.521 275.331 350.38L260.001 336.88C259.433 336.393 258.751 336.057 258.019 335.903C257.287 335.749 256.527 335.783 255.811 336Z" fill="#3B62B2"></path><path d="M234.55 336.72C233.378 337.206 232.33 337.95 231.486 338.897C230.641 339.844 230.022 340.969 229.673 342.189C229.324 343.409 229.255 344.692 229.471 345.942C229.687 347.192 230.182 348.378 230.92 349.41L231 349.53C233.94 353.35 248.63 355.4 255.38 353.64C262.13 351.88 263.14 347.03 258.9 343.36C256.31 341.12 246.9 336.02 239.81 335.73C238.003 335.648 236.203 335.987 234.55 336.72Z" fill="white" stroke="#003549" stroke-linecap="round" stroke-linejoin="round"></path><path d="M301 357.5L269.2 329.73C268.842 329.417 268.575 329.014 268.426 328.563C268.277 328.111 268.253 327.628 268.355 327.164C268.457 326.7 268.683 326.271 269.007 325.924C269.332 325.577 269.744 325.323 270.2 325.19L334.68 307.32C336.156 306.911 337.71 306.866 339.207 307.188C340.705 307.511 342.102 308.19 343.28 309.17L374.5 335L301 357.5Z" fill="#3B62B2" stroke="#003549" stroke-linecap="round" stroke-linejoin="round"></path><path d="M335.152 331.87L337.672 334.07L343.132 332.64L340.582 330.41L335.152 331.87Z" fill="#003549"></path><path d="M323.321 321.52L328.811 320.11L326.361 317.96L320.891 319.39L323.321 321.52Z" fill="#003549"></path><path d="M327.531 317.66L329.991 319.81L335.481 318.41L333.001 316.24L327.531 317.66Z" fill="#003549"></path><path d="M337.57 318.91L340.2 321.21L345.16 319.94L342.42 317.67L337.57 318.91Z" fill="#003549"></path><path d="M341.121 322.01L343.751 324.32L348.861 323.01L346.111 320.73L341.121 322.01Z" fill="#003549"></path><path d="M353.562 326.92L348.332 328.32L350.922 330.59L356.282 329.18L353.562 326.92Z" fill="#003549"></path><path d="M347.172 328.64L341.742 330.1L344.292 332.33L349.752 330.89L347.172 328.64Z" fill="#003549"></path><path d="M344.66 325.12L347.43 327.53L352.62 326.14L349.81 323.8L344.66 325.12Z" fill="#003549"></path><path d="M333.542 322.92L339.032 321.51L336.392 319.21L330.902 320.61L333.542 322.92Z" fill="#003549"></path><path d="M313.322 336.71L310.162 333.94L304.672 335.34L307.902 338.17L313.322 336.71Z" fill="white"></path><path d="M309.251 333.14L306.611 330.83L301.121 332.24L303.751 334.54L309.251 333.14Z" fill="white"></path><path d="M305.7 330.04L303.06 327.73L297.57 329.13L300.21 331.44L305.7 330.04Z" fill="white"></path><path d="M316.66 323.22L322.15 321.82L319.72 319.69L314.25 321.12L316.66 323.22Z" fill="#003549"></path><path d="M316.641 339.61L314.231 337.5L308.801 338.96L311.181 341.04L316.641 339.61Z" fill="#003549"></path><path d="M309.989 324.93L315.479 323.52L313.079 321.42L307.609 322.84L309.989 324.93Z" fill="white"></path><path d="M303.323 326.63L308.823 325.23L306.443 323.15L300.973 324.57L303.323 326.63Z" fill="white"></path><path d="M296.662 328.33L302.152 326.93L299.802 324.88L294.332 326.3L296.662 328.33Z" fill="white"></path><path d="M324.672 330.23L327.662 332.85L333.092 331.39L330.162 328.82L324.672 330.23Z" fill="#003549"></path><path d="M324.242 322.32L326.872 324.62L332.362 323.22L329.732 320.91L324.242 322.32Z" fill="#003549"></path><path d="M344.042 333.43L338.582 334.87L341.372 337.31L346.792 335.84L344.042 333.43Z" fill="#003549"></path><path d="M330.421 327.73L335.911 326.32L333.271 324.02L327.781 325.42L330.421 327.73Z" fill="#003549"></path><path d="M320.2 326.33L325.7 324.92L323.06 322.62L317.57 324.02L320.2 326.33Z" fill="#003549"></path><path d="M334.453 323.72L337.083 326.02L342.583 324.62L339.943 322.31L334.453 323.72Z" fill="#003549"></path><path d="M320.47 342.96L317.55 340.4L312.09 341.84L315.05 344.43L320.47 342.96Z" fill="#003549"></path><path d="M336.822 327.12L331.332 328.52L334.252 331.08L339.682 329.62L336.822 327.12Z" fill="#003549"></path><path d="M343.49 325.42L338 326.82L340.84 329.31L346.27 327.85L343.49 325.42Z" fill="#003549"></path><path d="M313.542 328.03L319.032 326.63L316.392 324.32L310.902 325.73L313.542 328.03Z" fill="white"></path><path d="M330.792 336.92L325.332 338.35L328.212 340.87L333.632 339.4L330.792 336.92Z" fill="#003549"></path><path d="M337.411 335.17L331.961 336.61L334.791 339.09L340.211 337.62L337.411 335.17Z" fill="#003549"></path><path d="M306.872 329.74L312.362 328.33L309.732 326.02L304.242 327.43L306.872 329.74Z" fill="white"></path><path d="M327.051 341.18L324.171 338.66L318.711 340.1L321.631 342.65L327.051 341.18Z" fill="#003549"></path><path d="M333.992 332.18L328.562 333.64L331.052 335.81L336.503 334.38L333.992 332.18Z" fill="#003549"></path><path d="M315.913 331.44L313.283 329.13L307.793 330.53L310.423 332.84L315.913 331.44Z" fill="white"></path><path d="M319.912 334.94L316.822 332.23L311.332 333.64L314.482 336.4L319.912 334.94Z" fill="#003549"></path><path d="M323.261 337.87L320.821 335.73L315.391 337.19L317.801 339.3L323.261 337.87Z" fill="#003549"></path><path d="M297.09 336.25L295.91 336.55L296.83 337.35L298 337.05L297.09 336.25Z" fill="white"></path><path d="M306.74 338.48L303.49 335.64L298 337.05L301.31 339.94L306.74 338.48Z" fill="white"></path><path d="M310.011 341.35L307.641 339.27L302.211 340.73L304.561 342.79L310.011 341.35Z" fill="white"></path><path d="M326.5 333.16L323.49 330.53L318 331.93L321.07 334.62L326.5 333.16Z" fill="#003549"></path><path d="M301.312 339.94L300.152 340.25L301.052 341.04L302.212 340.73L301.312 339.94Z" fill="white"></path><path d="M302.583 334.84L299.943 332.54L294.453 333.94L297.093 336.25L302.583 334.84Z" fill="white"></path><path d="M329.88 336.12L327.4 333.95L321.98 335.42L324.43 337.56L329.88 336.12Z" fill="#003549"></path><path d="M293.541 333.14L292.371 333.44L293.281 334.24L294.451 333.94L293.541 333.14Z" fill="white"></path><path d="M317.093 331.13L322.583 329.73L319.943 327.43L314.453 328.83L317.093 331.13Z" fill="#003549"></path><path d="M317.483 347.88L314.803 345.53L309.383 347L312.213 349.48L317.483 347.88Z" fill="#003549"></path><path d="M308.222 347.31L302.652 348.82L305.712 351.45L311.082 349.82L308.222 347.31Z" fill="white"></path><path d="M355.43 334.54L357.01 335.92L362.42 334.28L360.94 333.05L355.43 334.54Z" fill="#003549"></path><path d="M308.473 346.21L307.312 346.52L308.223 347.31L309.383 347L308.473 346.21Z" fill="#003549"></path><path d="M326.611 325.72L321.121 327.13L323.751 329.43L329.241 328.03L326.611 325.72Z" fill="#003549"></path><path d="M304.561 342.79L303.391 343.09L304.301 343.89L305.471 343.58L304.561 342.79Z" fill="white"></path><path d="M299.032 331.74L296.402 329.43L290.902 330.84L293.542 333.14L299.032 331.74Z" fill="white"></path><path d="M313.893 344.74L310.923 342.14L305.473 343.58L308.473 346.21L313.893 344.74Z" fill="#003549"></path><path d="M280.562 329.88L282.862 331.86L288.823 330.34L286.522 328.33L280.562 329.88Z" fill="white"></path><path d="M345.203 333.12L347.953 335.53L353.373 334.06L350.663 331.69L345.203 333.12Z" fill="#003549"></path><path d="M347.69 336.63L342.27 338.1L344.21 339.79L349.48 338.19L347.69 336.63Z" fill="#003549"></path><path d="M354.272 334.85L348.852 336.32L350.612 337.85L355.882 336.26L354.272 334.85Z" fill="#003549"></path><path d="M357.22 329.96L351.82 331.38L354.53 333.75L360 332.27L357.22 329.96Z" fill="#003549"></path><path d="M289.99 330.04L288.82 330.34L289.73 331.14L290.9 330.84L289.99 330.04Z" fill="white"></path><path d="M327.963 341.97L322.543 343.44L325.013 345.61L330.283 344.01L327.963 341.97Z" fill="#003549"></path><path d="M336.652 318.11L341.472 316.88L338.862 314.71L334.172 315.93L336.652 318.11Z" fill="#003549"></path><path d="M341.121 338.41L335.691 339.88L337.811 341.73L343.081 340.13L341.121 338.41Z" fill="#003549"></path><path d="M334.541 340.19L329.121 341.66L331.411 343.67L336.681 342.07L334.541 340.19Z" fill="#003549"></path><path d="M298.633 345.38L301.733 348.03L307.313 346.52L304.303 343.89L298.633 345.38Z" fill="white"></path><path d="M293.161 326.6L287.691 328.03L289.991 330.04L295.481 328.63L293.161 326.6Z" fill="white"></path><path d="M283.793 332.66L286.473 334.95L292.373 333.44L289.733 331.14L283.793 332.66Z" fill="white"></path><path d="M323.881 345.95L321.381 343.75L315.961 345.22L318.611 347.54L323.881 345.95Z" fill="#003549"></path><path d="M295.359 342.57L297.709 344.59L303.389 343.09L301.049 341.04L295.359 342.57Z" fill="white"></path><path d="M291 338.84L294.44 341.79L300.15 340.25L296.83 337.35L291 338.84Z" fill="white"></path><path d="M287.402 335.75L290.072 338.04L295.912 336.55L293.282 334.24L287.402 335.75Z" fill="white"></path><path d="M320.12 304.33L301 357.5L374.5 335L397.91 283.6C398.095 283.19 398.16 282.735 398.096 282.29C398.032 281.844 397.843 281.426 397.551 281.084C397.258 280.742 396.874 280.49 396.443 280.358C396.013 280.227 395.554 280.22 395.12 280.34L325.42 299.43C324.208 299.762 323.094 300.38 322.172 301.233C321.249 302.086 320.546 303.148 320.12 304.33Z" fill="#3B62B2" stroke="#003549" stroke-linecap="round" stroke-linejoin="round"></path><path d="M358.532 314.18C359.532 316.47 357.802 319.37 354.742 320.65C351.682 321.93 348.432 321.11 347.472 318.82C346.512 316.53 348.202 313.63 351.262 312.35C354.322 311.07 357.572 311.89 358.532 314.18Z" fill="#003549"></path><path d="M177.1 354.94L123.77 367.45L156.27 418.36L212.52 406.84L177.1 354.94Z" fill="white" stroke="#003549" stroke-linecap="round" stroke-linejoin="round"></path><path d="M141 357L180 405.5L233 388.5L190 344L141 357Z" fill="white" stroke="#003549" stroke-linecap="round" stroke-linejoin="round"></path><path d="M155.559 364.17L189.299 354.19" stroke="#003549" stroke-linecap="round" stroke-linejoin="round"></path><path d="M160.75 368.84L194.49 358.86" stroke="#003549" stroke-linecap="round" stroke-linejoin="round"></path><path d="M165.941 373.51L199.681 363.53" stroke="#003549" stroke-linecap="round" stroke-linejoin="round"></path><path d="M171.129 378.18L204.879 368.21" stroke="#003549" stroke-linecap="round" stroke-linejoin="round"></path><path d="M176.32 382.86L210.07 372.88" stroke="#003549" stroke-linecap="round" stroke-linejoin="round"></path><path d="M181.508 387.53L215.258 377.55" stroke="#003549" stroke-linecap="round" stroke-linejoin="round"></path><path d="M186.711 392.2L220.451 382.22" stroke="#003549" stroke-linecap="round" stroke-linejoin="round"></path><path d="M203.5 213.5L132.5 229C132.5 229 136 285 142 308C142 308 148.25 330.14 151.81 337L218.76 319.44C218.76 319.44 209 293.5 203.5 213.5Z" fill="#3B62B2" stroke="#003549" stroke-linecap="round" stroke-linejoin="round"></path><path d="M253.413 221.54C247.893 216.61 241.223 217.77 234.553 215.16C229.815 213.412 224.976 211.953 220.063 210.79L218.893 210.52C218.893 210.52 215.993 204.43 210.773 205.3C205.553 206.17 183.803 221 182.063 225C180.323 229 180.323 267.64 180.613 281C180.803 290.08 182.613 297.27 185.953 302.23L180.673 329.67L254.573 310C254.573 310 249.523 307.4 249.343 292.6C249.343 289.74 250.503 282.16 251.963 273.46C252.841 267.701 253.133 261.868 252.833 256.05C255.412 256.953 257.931 258.022 260.373 259.25C264.433 261.25 288.503 271.14 288.503 271.14L295.503 258.38C295.503 258.38 258.923 226.47 253.413 221.54Z" fill="#D94D53" stroke="#003549" stroke-linecap="round" stroke-linejoin="round"></path><path d="M70.6719 358.33L407.502 270.5" stroke="#003549" stroke-linecap="round" stroke-linejoin="round"></path><path d="M187.211 278.23C187.211 278.23 193.921 262.45 197.071 249.04" stroke="#003549" stroke-linecap="round" stroke-linejoin="round"></path><path d="M184.852 283C184.852 283 197.072 270.77 200.622 258.54" stroke="#003549" stroke-linecap="round" stroke-linejoin="round"></path><path d="M219.934 294.42C219.934 294.42 231.874 288.19 237.064 282.48" stroke="#003549" stroke-linecap="round" stroke-linejoin="round"></path><path d="M198.801 223.51C198.801 223.51 199.461 223.57 201.801 228.21C204.141 232.85 207.001 240.39 207.001 240.39L212.221 235.17L217.151 241.84" stroke="#003549" stroke-linecap="round" stroke-linejoin="round"></path><path d="M229.782 217.31C229.782 217.31 231.942 219.8 233.682 225.31C235.422 230.82 235.422 231.98 235.422 231.98L228.422 230.53L227.262 240.39" stroke="#003549" stroke-linecap="round" stroke-linejoin="round"></path><path d="M251.672 239.23L252.822 256.06L255.442 234.59" stroke="#003549" stroke-linecap="round" stroke-linejoin="round"></path><path d="M223.114 205.09L221.004 212.85C223.063 217.068 224.543 221.546 225.404 226.16C227.174 235.9 225.314 255.16 225.314 255.16C225.314 255.16 217.114 237.04 212.374 228.41C207.634 219.78 205.894 215.46 205.464 211.15C205.034 206.84 208.054 195.62 208.914 194.32C209.774 193.02 223.114 205.09 223.114 205.09Z" fill="white" stroke="#003549" stroke-linecap="round" stroke-linejoin="round"></path><path d="M239.511 136.92C234.692 132.841 228.866 130.132 222.642 129.076C216.418 128.021 210.024 128.657 204.131 130.92C183.421 138.64 183.001 162.8 183.001 176.61C183.001 190.42 177.251 213.02 166.471 223.37C155.691 233.72 151.471 244.78 154.091 256.43C156.711 268.08 167.461 274.98 175.231 274.12C183.001 273.26 178.231 238.74 186.021 231.84C193.811 224.94 203.711 218.84 210.181 199.48C213.886 194.821 216.402 189.329 217.511 183.48C219.241 173.99 225.711 158.89 232.611 157.6C239.511 156.31 241.681 177.01 239.091 184.78C236.501 192.55 223.551 201.61 223.091 205.06C222.648 207.715 221.927 210.316 220.941 212.82C220.941 212.82 228.441 217.45 241.651 218.82C243.51 219.054 245.391 219.054 247.251 218.82C247.251 218.82 250.351 216.25 259.001 202C267.501 188 259.491 153.2 250.001 145C240.511 136.8 239.511 136.92 239.511 136.92Z" fill="#003549" stroke="#003549" stroke-linecap="round" stroke-linejoin="round"></path><path d="M169.103 227.65C167.704 228.444 166.258 229.151 164.773 229.77" stroke="white" stroke-linecap="round" stroke-linejoin="round"></path><path d="M165.421 224.66C165.421 224.66 153.421 231.34 153.781 249.29C154.091 256.628 157.005 263.616 162.001 269" stroke="white" stroke-linecap="round" stroke-linejoin="round"></path><path d="M198.084 160.53C193.514 178.3 191.614 200.95 185.344 212.23C182.576 216.97 178.825 221.062 174.344 224.23" stroke="white" stroke-linecap="round" stroke-linejoin="round"></path><path d="M241.322 150.86C241.322 150.86 242.322 145.47 235.922 140.07C229.832 134.94 206.972 138.07 200.102 154.01" stroke="white" stroke-linecap="round" stroke-linejoin="round"></path><path d="M223.653 131C218.666 129.194 213.186 129.301 208.273 131.3C202.301 133.555 197.081 137.44 193.206 142.513C189.331 147.587 186.957 153.645 186.353 160C185.003 172.14 186.693 191 181.293 202.82" stroke="white" stroke-linecap="round" stroke-linejoin="round"></path><path d="M232.212 136C231.148 135.033 229.993 134.172 228.762 133.43" stroke="white" stroke-linecap="round" stroke-linejoin="round"></path><path d="M258.852 198.75C259.191 197.069 259.435 195.369 259.582 193.66" stroke="white" stroke-linecap="round" stroke-linejoin="round"></path><path d="M259.734 189C259.224 168.07 243.344 155.26 243.344 155.26" stroke="white" stroke-linecap="round" stroke-linejoin="round"></path><path d="M240.801 153.74C240.801 153.74 248.141 169.74 244.691 182.22C241.241 194.7 233.901 205.09 228.691 207.68C223.481 210.27 210.141 199.48 210.141 199.48C210.141 199.48 214.451 189.99 214.451 180.06C214.451 170.13 217.911 158.06 225.671 154.18C228.019 153.045 230.581 152.42 233.189 152.344C235.796 152.268 238.39 152.744 240.801 153.74Z" fill="white" stroke="#003549" stroke-linecap="round" stroke-linejoin="round"></path><path d="M232.003 179C231.768 180.842 231.904 182.712 232.403 184.5C233.233 186.79 235.313 188.24 233.653 188.66C232.07 188.91 230.463 188.981 228.863 188.87" stroke="#003549" stroke-linecap="round" stroke-linejoin="round"></path><path d="M226.281 195.45C227.765 196.288 229.496 196.578 231.171 196.27" stroke="#003549" stroke-linecap="round" stroke-linejoin="round"></path><path d="M224.903 179.07C224.903 180.22 224.393 181.15 223.763 181.15C223.133 181.15 222.613 180.22 222.613 179.07C222.613 177.92 223.123 176.99 223.763 176.99C224.403 176.99 224.903 177.92 224.903 179.07Z" fill="#003549"></path><path d="M239.181 178.42C239.181 179.56 238.671 180.5 238.041 180.5C237.411 180.5 236.891 179.56 236.891 178.42C236.891 177.28 237.411 176.34 238.041 176.34C238.671 176.34 239.181 177.27 239.181 178.42Z" fill="#003549"></path><path d="M242.384 172.31C242.205 172.356 242.016 172.351 241.84 172.296C241.663 172.242 241.505 172.139 241.384 172C241.117 171.612 240.765 171.291 240.354 171.062C239.942 170.833 239.484 170.702 239.014 170.68C237.957 170.896 237.025 171.512 236.414 172.4C236.263 172.619 236.031 172.769 235.769 172.816C235.507 172.864 235.238 172.806 235.019 172.655C234.8 172.504 234.65 172.272 234.602 172.01C234.554 171.749 234.613 171.479 234.764 171.26C234.834 171.16 236.474 168.82 238.904 168.68C239.681 168.673 240.449 168.85 241.145 169.198C241.84 169.546 242.443 170.054 242.904 170.68C243.077 170.88 243.164 171.141 243.146 171.406C243.127 171.67 243.004 171.916 242.804 172.09C242.682 172.194 242.539 172.269 242.384 172.31Z" fill="#003549"></path><path d="M226.842 173C226.572 173.004 226.31 172.912 226.102 172.74C222.562 169.94 219.752 172.37 219.632 172.47C219.402 172.672 219.103 172.779 218.797 172.77C218.491 172.761 218.2 172.636 217.982 172.42C217.878 172.316 217.796 172.191 217.742 172.054C217.688 171.916 217.663 171.769 217.669 171.622C217.674 171.474 217.71 171.33 217.775 171.197C217.839 171.064 217.93 170.946 218.042 170.85C219.394 169.735 221.1 169.141 222.852 169.176C224.604 169.211 226.286 169.872 227.592 171.04C227.709 171.129 227.806 171.242 227.877 171.37C227.949 171.499 227.993 171.641 228.007 171.787C228.021 171.934 228.005 172.081 227.959 172.221C227.914 172.361 227.84 172.49 227.742 172.6C227.629 172.727 227.49 172.828 227.335 172.897C227.18 172.966 227.012 173.001 226.842 173Z" fill="#003549"></path><path d="M229.223 179.6C229.225 180.854 228.855 182.081 228.159 183.125C227.464 184.169 226.474 184.983 225.316 185.465C224.158 185.946 222.883 186.073 221.652 185.829C220.422 185.586 219.291 184.983 218.403 184.097C217.516 183.21 216.911 182.081 216.666 180.851C216.42 179.62 216.545 178.345 217.025 177.186C217.504 176.027 218.317 175.036 219.36 174.339C220.402 173.642 221.629 173.27 222.883 173.27C224.563 173.27 226.174 173.937 227.362 175.123C228.551 176.31 229.22 177.92 229.223 179.6V179.6Z" stroke="#003549" stroke-linecap="round" stroke-linejoin="round"></path><path d="M216.663 180.29L214.703 179.47" stroke="#003549" stroke-linecap="round" stroke-linejoin="round"></path><path d="M245.41 178.48C245.41 179.734 245.038 180.961 244.341 182.003C243.644 183.046 242.653 183.859 241.494 184.338C240.335 184.818 239.06 184.943 237.83 184.697C236.6 184.452 235.47 183.847 234.584 182.959C233.698 182.072 233.095 180.941 232.851 179.711C232.608 178.48 232.735 177.205 233.216 176.047C233.697 174.889 234.512 173.899 235.555 173.204C236.599 172.508 237.826 172.138 239.08 172.14C240.76 172.143 242.37 172.812 243.557 174C244.744 175.189 245.41 176.8 245.41 178.48V178.48Z" stroke="#003549" stroke-linecap="round" stroke-linejoin="round"></path><path d="M229.223 179.6C229.42 179.281 229.702 179.023 230.039 178.857C230.375 178.69 230.752 178.622 231.125 178.659C231.499 178.697 231.854 178.839 232.151 179.069C232.447 179.299 232.673 179.608 232.803 179.96" stroke="#003549" stroke-linecap="round" stroke-linejoin="round"></path><path d="M185.603 300.9C185.603 300.9 187.993 281.9 189.003 270C190.013 258.1 191.083 231.47 184.003 228.5C176.923 225.53 169.083 227.71 165.383 246.17C161.683 264.63 161.383 306.5 161.383 306.5L185.603 300.9Z" fill="#D94D53" stroke="#003549" stroke-linecap="round" stroke-linejoin="round"></path><path d="M189.51 311.11C189.51 311.11 222.69 335 225.88 335C229.07 335 239.8 331.23 244.15 332.39C248.5 333.55 253.15 342.54 254.02 343.12C254.89 343.7 256.34 345.44 254.89 346.31C253.44 347.18 244.73 343.41 243.28 343.41C242.468 343.431 241.666 343.231 240.96 342.83L237.19 341.96C237.19 341.96 247.63 347.18 248.5 347.47C249.37 347.76 248.8 348.92 245.89 348.92C242.98 348.92 239.51 347.18 237.48 346.6C235.364 345.744 233.091 345.349 230.81 345.44C226.75 345.44 219.21 341.38 219.21 341.38C219.21 341.38 186.21 330.88 178.64 328.56C171.07 326.24 164.52 320.22 164.23 319.35C163.94 318.48 181.68 311.4 189.51 311.11Z" fill="white" stroke="#003549" stroke-linecap="round" stroke-linejoin="round"></path><path d="M239.602 337.33C239.602 337.33 250.712 340.94 254.022 343.15" stroke="#003549" stroke-linecap="round" stroke-linejoin="round"></path><path d="M241 334.26C241 334.26 247.38 334.97 250.22 337.57" stroke="#003549" stroke-linecap="round" stroke-linejoin="round"></path><path d="M184.253 294.43C184.253 294.43 164.113 298.32 161.253 300.35C158.393 302.38 158.983 305.89 159.853 307.92C160.723 309.95 160.723 320.1 163.913 322.42C164.913 323.18 184.792 316.33 188.562 315.42C192.333 314.51 192.993 309.18 191.562 303.96C190.132 298.74 190.053 291.24 184.253 294.43Z" fill="#D94D53" stroke="#003549" stroke-linecap="round" stroke-linejoin="round"></path><path d="M278.064 248.8C278.064 248.8 272.264 258.08 271.974 263.02C271.684 267.96 272.844 268.24 274.874 269.69C276.904 271.14 286.184 275.2 292.274 275.78C298.364 276.36 304.164 263.6 304.454 259.54C304.744 255.48 295.754 249.09 289.374 246.48C282.994 243.87 278.354 246.48 278.064 248.8Z" fill="#D94D53" stroke="#003549" stroke-linecap="round" stroke-linejoin="round"></path><path d="M267 223.57C267 223.57 304.12 254.89 308.18 261.57C312.24 268.25 305.28 274.04 300.06 274.33C294.84 274.62 290.78 269.11 285.56 263.33C280.34 257.55 261 227.05 261 227.05L267 223.57Z" fill="white" stroke="#003549" stroke-linecap="round" stroke-linejoin="round"></path><path d="M261.242 209.94C261.242 209.94 256.312 224.44 256.312 226.76C256.312 229.08 259.502 230.53 262.402 230.53C265.302 230.53 267.912 226.47 269.652 221.53C271.392 216.59 273.423 210.53 271.393 209.06C269.363 207.59 261.822 208.78 261.242 209.94Z" fill="white" stroke="#003549" stroke-linecap="round" stroke-linejoin="round"></path><path d="M260.082 214.29L271.392 215.45" stroke="#003549" stroke-linecap="round" stroke-linejoin="round"></path><path d="M258.922 219.8L269.652 221.54" stroke="#003549" stroke-linecap="round" stroke-linejoin="round"></path><path d="M257.184 223.86L267.044 226.18" stroke="#003549" stroke-linecap="round" stroke-linejoin="round"></path><path d="M266.701 205.39C266.05 205.37 265.401 205.299 264.761 205.18C262.491 204.74 257.381 204 257.171 206.07C256.901 208.74 257.171 210.74 259.071 210.74H267.461C269.901 210.74 270.711 209.07 270.171 207.07C269.801 205.68 267.851 205.42 266.701 205.39Z" fill="white" stroke="#003549" stroke-linecap="round" stroke-linejoin="round"></path><path d="M221.001 212.85C220.828 215.34 220.828 217.84 221.001 220.33" stroke="#003549" stroke-miterlimit="10"></path><path d="M252.781 226.54H243.841C242.53 226.539 241.264 226.067 240.272 225.21C239.281 224.352 238.631 223.167 238.441 221.87L236.371 201.74H260.251L258.191 221.87C257.999 223.168 257.347 224.353 256.354 225.211C255.361 226.068 254.093 226.54 252.781 226.54Z" fill="white" stroke="#003549" stroke-linecap="round" stroke-linejoin="round"></path><path opacity="0.37" d="M248.842 201.29C248.592 200.07 247.292 198.69 245.992 196.95C243.622 193.79 282.282 195.76 286.992 194.19C291.702 192.62 285.812 192.61 284.992 189.06C284.172 185.51 294.462 189.45 304.712 188.66C314.962 187.87 311.423 185.11 298.402 182.35C285.382 179.59 271.972 183.53 276.712 187.87C281.452 192.21 274.342 190.64 258.562 190.64C242.783 190.64 241.993 193.4 240.423 198.92C240.165 199.807 239.699 200.62 239.062 201.29H248.842Z" fill="white"></path><path d="M463.54 234H419.83C418.111 234 416.463 234.683 415.248 235.898C414.033 237.113 413.35 238.761 413.35 240.48V263.86C413.35 265.579 414.033 267.227 415.248 268.442C416.463 269.657 418.111 270.34 419.83 270.34H421.17C419.81 273.34 417.17 277.94 413 280.67C413 280.67 421.87 280.05 431.11 270.34H463.52C465.239 270.34 466.887 269.657 468.102 268.442C469.317 267.227 470 265.579 470 263.86V240.48C470 238.765 469.32 237.12 468.109 235.905C466.898 234.69 465.255 234.005 463.54 234Z" fill="white" stroke="#3B62B2" stroke-width="0.5" stroke-linecap="round" stroke-linejoin="round"></path><path opacity="0.4" d="M434.168 251.338C434.17 250.677 433.976 250.03 433.61 249.479C433.243 248.928 432.722 248.498 432.111 248.244C431.5 247.99 430.828 247.923 430.179 248.052C429.53 248.181 428.934 248.499 428.467 248.967C427.999 249.434 427.681 250.03 427.552 250.679C427.423 251.328 427.49 252 427.744 252.611C427.998 253.222 428.428 253.743 428.979 254.11C429.53 254.476 430.177 254.67 430.838 254.668C431.721 254.666 432.566 254.314 433.19 253.69C433.814 253.066 434.166 252.221 434.168 251.338Z" fill="#3B62B2"></path><path opacity="0.4" d="M445.5 251.34C445.5 250.681 445.305 250.037 444.939 249.49C444.573 248.942 444.053 248.515 443.444 248.263C442.836 248.011 442.166 247.945 441.52 248.074C440.874 248.202 440.281 248.519 439.815 248.985C439.349 249.451 439.032 250.044 438.904 250.69C438.775 251.336 438.841 252.006 439.093 252.614C439.345 253.223 439.772 253.743 440.32 254.109C440.867 254.474 441.511 254.67 442.17 254.67C443.052 254.667 443.898 254.315 444.522 253.692C445.146 253.068 445.497 252.222 445.5 251.34Z" fill="#3B62B2"></path><path opacity="0.4" d="M456.84 251.338C456.842 250.677 456.648 250.031 456.282 249.48C455.916 248.929 455.395 248.5 454.785 248.245C454.175 247.991 453.503 247.924 452.855 248.051C452.206 248.179 451.61 248.496 451.142 248.963C450.674 249.43 450.355 250.025 450.225 250.673C450.095 251.321 450.161 251.993 450.413 252.604C450.666 253.215 451.094 253.737 451.644 254.105C452.193 254.472 452.839 254.668 453.5 254.668C454.383 254.666 455.23 254.314 455.855 253.691C456.481 253.067 456.835 252.222 456.84 251.338Z" fill="#3B62B2"></path><path d="M84.35 191H3.82C2.26256 191 1 192.263 1 193.82V224.51C1 226.067 2.26256 227.33 3.82 227.33H84.35C85.9074 227.33 87.17 226.067 87.17 224.51V193.82C87.17 192.263 85.9074 191 84.35 191Z" fill="white" stroke="#3B62B2" stroke-width="0.5" stroke-linecap="round" stroke-linejoin="round"></path><path d="M11.2599 195.951L11.6799 196.651C9.77994 197.711 8.00994 199.571 8.00994 201.751C7.98562 202.126 8.03629 202.501 8.15898 202.856C8.28167 203.211 8.47391 203.537 8.72444 203.817C8.97497 204.096 9.27875 204.323 9.61797 204.483C9.95719 204.643 10.325 204.735 10.6999 204.751C10.9799 204.751 11.1699 204.611 11.1699 204.331C11.1699 204.051 11.0299 203.961 10.7499 203.911C10.3723 203.809 10.0434 203.576 9.82176 203.253C9.60013 202.931 9.50025 202.54 9.53994 202.151C9.54722 201.841 9.61758 201.535 9.74674 201.252C9.87591 200.97 10.0612 200.717 10.2913 200.508C10.5214 200.3 10.7915 200.14 11.0853 200.039C11.379 199.938 11.6902 199.898 11.9999 199.921C12.3369 199.922 12.6701 199.991 12.9801 200.123C13.29 200.255 13.5702 200.448 13.8042 200.691C14.0382 200.933 14.2213 201.22 14.3425 201.535C14.4637 201.849 14.5206 202.184 14.5099 202.521C14.505 202.944 14.4149 203.362 14.2449 203.75C14.0749 204.138 13.8286 204.487 13.5206 204.777C13.2125 205.067 12.8492 205.293 12.4522 205.439C12.0552 205.586 11.6327 205.651 11.2099 205.631C10.6844 205.665 10.1575 205.588 9.66345 205.406C9.16943 205.223 8.71928 204.939 8.34217 204.571C7.96506 204.204 7.66941 203.761 7.47436 203.271C7.27931 202.782 7.18923 202.257 7.20994 201.731C7.17994 199.201 9.12993 197.161 11.2599 195.951ZM19.8499 195.951L20.2699 196.651C18.3599 197.711 16.5999 199.571 16.5999 201.751C16.5742 202.126 16.6239 202.502 16.7461 202.857C16.8683 203.213 17.0604 203.54 17.3112 203.819C17.562 204.099 17.8663 204.326 18.2062 204.486C18.5461 204.646 18.9146 204.736 19.2899 204.751C19.5699 204.751 19.7599 204.611 19.7599 204.331C19.7599 204.051 19.6199 203.961 19.3399 203.911C18.9623 203.809 18.6334 203.576 18.4118 203.253C18.1901 202.931 18.0902 202.54 18.1299 202.151C18.1358 201.84 18.2052 201.534 18.3339 201.251C18.4626 200.967 18.6478 200.714 18.8782 200.505C19.1087 200.296 19.3794 200.136 19.6737 200.036C19.9681 199.936 20.2799 199.897 20.5899 199.921C20.9269 199.922 21.2601 199.991 21.57 200.123C21.88 200.255 22.1602 200.448 22.3942 200.691C22.6282 200.933 22.8113 201.22 22.9325 201.535C23.0537 201.849 23.1106 202.184 23.0999 202.521C23.0937 202.944 23.0026 203.361 22.8321 203.748C22.6617 204.135 22.4153 204.484 22.1076 204.774C21.7998 205.064 21.437 205.289 21.0407 205.437C20.6443 205.584 20.2224 205.65 19.7999 205.631C19.2747 205.664 18.7485 205.586 18.2552 205.403C17.7619 205.219 17.3124 204.935 16.9356 204.568C16.5588 204.2 16.2631 203.758 16.0675 203.27C15.8719 202.781 15.7808 202.257 15.7999 201.731C15.7599 199.201 17.7099 197.161 19.8499 195.951Z" fill="#3B62B2"></path><path opacity="0.4" d="M28.0703 203.352H77.1103" stroke="#3B62B2" stroke-width="0.5" stroke-linecap="round" stroke-linejoin="round"></path><path opacity="0.4" d="M28.0703 207.561H77.1103" stroke="#3B62B2" stroke-width="0.5" stroke-linecap="round" stroke-linejoin="round"></path><path opacity="0.4" d="M28.0703 211.771H77.1103" stroke="#3B62B2" stroke-width="0.5" stroke-linecap="round" stroke-linejoin="round"></path><path opacity="0.4" d="M28.0703 215.99H77.1103" stroke="#3B62B2" stroke-width="0.5" stroke-linecap="round" stroke-linejoin="round"></path><path d="M110.346 148.302C110.346 148.254 110.357 148.207 110.377 148.163C110.396 148.12 110.425 148.081 110.46 148.049L114.46 144.316L110.998 140.487C110.959 140.442 110.931 140.388 110.918 140.329C110.904 140.271 110.905 140.21 110.919 140.152C110.934 140.095 110.962 140.043 111.003 140C111.043 139.957 111.094 139.925 111.15 139.907L128.649 133.928C128.716 133.907 128.787 133.905 128.855 133.922C128.923 133.94 128.984 133.976 129.032 134.027C129.081 134.079 129.113 134.144 129.124 134.215C129.135 134.285 129.124 134.358 129.092 134.422L121.457 151.281C121.432 151.336 121.393 151.384 121.345 151.421C121.297 151.458 121.241 151.483 121.181 151.493C121.121 151.501 121.061 151.494 121.004 151.473C120.948 151.453 120.897 151.42 120.856 151.376L117.308 147.452L113.39 151.107C113.32 151.172 113.228 151.206 113.133 151.202C113.038 151.198 112.948 151.157 112.883 151.088L110.463 148.555C110.393 148.489 110.351 148.398 110.346 148.302ZM115.283 144.294C115.286 144.346 115.278 144.399 115.258 144.447C115.239 144.496 115.209 144.54 115.17 144.575L111.185 148.3L113.11 150.315L117.068 146.62C117.141 146.557 117.234 146.523 117.33 146.525C117.427 146.53 117.519 146.574 117.584 146.646L121.007 150.434L128.089 134.809L111.9 140.338L115.23 144.015C115.281 144.098 115.3 144.197 115.283 144.294Z" fill="#263238"></path><path d="M132.195 130.216C132.19 130.122 132.221 130.03 132.28 129.957L134.308 127.663C134.371 127.592 134.459 127.548 134.554 127.542C134.648 127.537 134.741 127.569 134.812 127.631C134.883 127.694 134.926 127.782 134.932 127.877C134.938 127.972 134.906 128.065 134.843 128.136L132.816 130.431C132.751 130.501 132.662 130.544 132.567 130.55C132.471 130.556 132.377 130.524 132.304 130.462C132.24 130.396 132.201 130.308 132.195 130.216Z" fill="#263238"></path><path d="M128.582 128.972L128.392 125.903C128.386 125.807 128.418 125.713 128.481 125.641C128.545 125.57 128.634 125.526 128.73 125.52C128.825 125.514 128.919 125.546 128.991 125.61C129.063 125.673 129.106 125.763 129.112 125.858L129.302 128.927C129.308 129.022 129.276 129.116 129.212 129.188C129.149 129.26 129.06 129.304 128.964 129.309C128.869 129.315 128.775 129.283 128.703 129.22C128.631 129.156 128.587 129.067 128.582 128.972Z" fill="#263238"></path><path d="M132.622 137.253C132.619 137.183 132.636 137.113 132.672 137.052C132.708 136.991 132.762 136.943 132.825 136.912C132.889 136.881 132.96 136.869 133.03 136.878C133.1 136.888 133.166 136.917 133.219 136.963L135.514 138.991C135.55 139.022 135.579 139.061 135.6 139.103C135.621 139.146 135.633 139.193 135.636 139.24C135.639 139.288 135.633 139.335 135.617 139.38C135.602 139.425 135.577 139.467 135.546 139.502C135.482 139.573 135.394 139.615 135.3 139.621C135.206 139.627 135.113 139.595 135.041 139.534L132.746 137.506C132.673 137.442 132.629 137.351 132.622 137.253Z" fill="#263238"></path><path d="M122.845 128.617C122.842 128.547 122.859 128.477 122.895 128.416C122.931 128.355 122.984 128.306 123.048 128.275C123.111 128.244 123.182 128.233 123.252 128.242C123.323 128.251 123.388 128.281 123.442 128.327L125.737 130.355C125.772 130.386 125.802 130.424 125.823 130.467C125.844 130.51 125.856 130.556 125.859 130.604C125.862 130.651 125.855 130.699 125.84 130.744C125.824 130.789 125.8 130.831 125.768 130.866C125.705 130.936 125.617 130.979 125.523 130.985C125.428 130.99 125.335 130.959 125.264 130.897L122.969 128.87C122.896 128.805 122.852 128.714 122.845 128.617Z" fill="#263238"></path><path d="M133.87 133.647C133.864 133.551 133.896 133.457 133.959 133.386C134.023 133.314 134.112 133.27 134.208 133.264L137.277 133.074C137.372 133.069 137.466 133.101 137.538 133.164C137.609 133.228 137.653 133.317 137.659 133.412C137.665 133.508 137.633 133.602 137.569 133.674C137.506 133.745 137.417 133.789 137.321 133.795L134.252 133.985C134.157 133.991 134.063 133.958 133.991 133.895C133.919 133.832 133.876 133.742 133.87 133.647Z" fill="#263238"></path></svg> 