<svg xmlns="http://www.w3.org/2000/svg" width="642.135" height="469.423" viewBox="0 0 642.135 469.423"><defs><style>.a{fill:#dffdfb;}.b{fill:#00b5b3;}.c{fill:#009391;}.d{fill:#78d8d1;}.e{fill:#f1a34f;}.f{fill:#009290;opacity:0.4;}.g{fill:#48bbb7;}.h{fill:#fff;}.i,.k{fill:#9cf4ed;}.j{fill:#e9f3fe;}.k{opacity:0.704;}.l{fill:#3176bb;}.m{fill:#fafdff;stroke:#78d8d1;stroke-width:4px;}.n{fill:#20549d;}.o{fill:none;stroke:#001a3a;stroke-width:2px;}.p{fill:#ea8700;}.q{fill:#0f1b40;}.r{fill:#164280;}.s{fill:#ffc790;}.t{fill:#ffa30f;}.u{fill:#f6b077;}.v{fill:#603e25;}</style></defs><g transform="translate(-162.536 -286.932)"><path class="a" d="M-6274.678,439.568H-6739.43c-2.167-.611-3.327-.957-3.337-.96l0-.008c-.2-.677-4.849-16.878-10.274-42.068-3.251-15.093-6.152-30.458-8.623-45.669-3.088-19.011-5.507-37.829-7.19-55.934-4.286-46.081-3.889-87.865,1.178-124.192,1.464-10.5,3.345-20.673,5.589-30.249a267.938,267.938,0,0,1,8.411-28.775,213.093,213.093,0,0,1,11.585-26.724,173.645,173.645,0,0,1,15.11-24.1,148.415,148.415,0,0,1,23.79-25.056,142.025,142.025,0,0,1,14.272-10.4,145.856,145.856,0,0,1,15.963-8.8,156.966,156.966,0,0,1,17.735-7.078,176.006,176.006,0,0,1,19.589-5.219,204.577,204.577,0,0,1,21.521-3.228C-6606.566.372-6598.648,0-6590.577,0a320.663,320.663,0,0,1,45.226,3.417c51.481,7.382,100,20.957,144.2,40.348a471.759,471.759,0,0,1,59.1,31.006,421.126,421.126,0,0,1,50.079,36.347,370.1,370.1,0,0,1,40.792,40.278,316.941,316.941,0,0,1,31.239,42.8,262.726,262.726,0,0,1,21.42,43.911,211.663,211.663,0,0,1,11.337,43.613,166.754,166.754,0,0,1,.223,47.985,137.837,137.837,0,0,1-13.885,43.575,134.629,134.629,0,0,1-28.4,37.017,152.746,152.746,0,0,1-19.768,15.378,177.3,177.3,0,0,1-23.548,12.933c-.705.322-1.419.645-2.122.96Z" transform="translate(6990 286.931)"/><path class="b" d="M813.266,1261.731s39.753,8.337,37.745,15.638-43.627-12.483-43.627-12.483-30.686,27.444-34.956,41.432c0,0,44.816-6.34,41.073.242s-50.072,15.345-50.072,15.345-21.067,32.446-2.579,46.713,32.675,9.47,36.133,4.8,16.865-38.252,20.844-35.587,1.574,28.1-7.543,39.065c0,0,40.025.317,45.839-18.624s-3.13-29.254.676-40.893,10.258-18.624,10.958-11.726-9.25,25.142-5.279,37.461,5.688,21.672,16.169,6.19,20.893-46.75,10.394-58.216l-1.313-1.434a7.434,7.434,0,0,1,1.313,1.434c3.114-2.367,13.736-3.451,21.744-3.939,1.325.007,3.2-.076,5.779-.282h0c1.146-.042,2.08-.068,2.731-.084,17.394.218,41.855,14.054,41.855,14.054l2.468-3.213c-22.653-18.77-49.81-13.559-49.81-13.559-20.695,2.1-35.266-4.444-35.266-4.444s-4.741-40.088-35.761-35.148C842.78,1244.477,822.563,1250.333,813.266,1261.731Z" transform="translate(-552.236 -681.272)"/><path class="c" d="M1299.828,585.209c-10.209,17-39.657,2.438-39.657,2.438s-11.967-38.213-17.889-40.721,3.852,34.669,3.852,34.669c-12.221-2.221-38.4-25.394-38.4-25.394s12.578-37.059,6.221-38.031-9.463,33.382-9.463,33.382c-10.532-6.716-17.469-23.191-17.469-23.191-7.229-25.677,26.116-33.635,26.116-33.635s4.082-12.937.266-30.185h0a46.135,46.135,0,0,1-1.552-8.5l3.138.89c.018.914.07,1.808.161,2.677a.019.019,0,0,0,0,.016c0,.013,0,.025,0,.038.077.546.191,1.323.337,2.273v0s0,0,0,0c.426,2.149.681,3.719.807,4.836a.025.025,0,0,1,0,.01c1.2,6.706,3.166,15.556,5.469,17.948a6.322,6.322,0,0,0-1.079,1.249l1.079-1.249c8.635-9.988,36.038-4.293,50.133,3.018s6.375,9.683-3.625,14.249-26.371-2.025-32.12-.754.78,6.024,10.973,8.085,18.01-6.5,34.561-3.468,20.236,36.826,20.236,36.826c-10.149-6.608-31.842-6.124-33.7-2.5s27.8,11.61,32.077,14.067S1310.038,568.205,1299.828,585.209Z" transform="matrix(-0.966, 0.259, -0.259, -0.966, 1577.297, 706.656)"/><g transform="translate(241.637 343.831)"><path class="c" d="M1236.723,985.674,1216.687,1223.9s-2.1,14.441,8.642,14.466c17.661.043,87.907,0,87.907,0s-13.292-3.006-13.132-9.77c.19-7.973,23.418-245.18,23.418-245.18Z" transform="translate(-1019.16 -856.039)"/><path class="d" d="M1327.022,1227.993c-3.474.01-70.567.221-87.766,0-7.5-.093-8.81-6.665-8.872-10.918a21.308,21.308,0,0,1,.228-3.546l.521-6.192,1.328-15.782,1.173-13.942,1.508-17.917,1.269-15.123L1250.646,975.3l86.8-2.253s-9.783,99.271-16.7,171.531c-.773,8.051-1.507,15.771-2.187,22.977q-.331,3.451-.638,6.74c-.642,6.837-1.228,13.115-1.739,18.658-.269,2.922-.517,5.636-.741,8.124-.883,9.745-1.4,15.968-1.407,17.151a10.028,10.028,0,0,0,.169,1.928C1315.625,1227.745,1325.718,1227.993,1327.022,1227.993Z" transform="translate(-1027.246 -849.985)"/><path class="d" d="M758.975,677.629l48.8,196.033,6.682,26.848,22.73,91.306h422.291L1175.7,677.629Z" transform="translate(-752.21 -677.629)"/><path class="d" d="M749.5,677.629l-6.763,2.254,75.988,318.753,8.992-6.819Z" transform="translate(-742.736 -677.629)"/><path class="c" d="M925.153,1438.688h419.692l11.59-6.819H934.146Z" transform="translate(-849.165 -1117.681)"/><rect class="c" width="90.87" height="4.318" transform="translate(314.241 382.422) rotate(180)"/><path class="e" d="M1239.023,933.922,1170.5,681.783H760.008l-1.034-4.154H1175.7l68.293,255.733Z" transform="translate(-752.21 -677.629)"/><path class="f" d="M1323.379,1448.235l-.48,3.3-88.575,41.9,2.25-38.58.572-6.623Z" transform="translate(-1032.238 -1127.229)"/><path class="g" d="M1100.409,1240.38l-185.506,63.6-22.731-91.307Z" transform="translate(-829.923 -989.796)"/><path class="b" d="M758.973,677.629H1175.7l67.615,252.508H821.835Z" transform="translate(-752.209 -677.629)"/><ellipse class="f" cx="10.176" cy="12.355" rx="10.176" ry="12.355" transform="translate(280.12 283.66) rotate(-47.777)"/><path class="h" d="M1247.839,938.139H857.655L813.468,762.11l-3.387-13.5L807.19,737.1l-6.776-27h384.56l7.442,27,3.174,11.514,3.721,13.5Z" transform="translate(-776.387 -696.573)"/><path class="i" d="M1192.415,737.1H807.19l-6.776-27h384.56Z" transform="translate(-776.387 -696.573)"/><g transform="translate(39.83 22.352)"><path class="j" d="M838.457,734.662a2.55,2.55,0,0,1,2.534-3.375,4.611,4.611,0,0,1,4.217,3.375,2.55,2.55,0,0,1-2.534,3.375A4.61,4.61,0,0,1,838.457,734.662Z" transform="translate(-838.353 -731.287)"/><path class="j" d="M865.378,734.662a2.55,2.55,0,0,1,2.534-3.375,4.611,4.611,0,0,1,4.216,3.375,2.55,2.55,0,0,1-2.534,3.375A4.61,4.61,0,0,1,865.378,734.662Z" transform="translate(-854.06 -731.287)"/><path class="j" d="M894.366,734.662a2.55,2.55,0,0,1,2.534-3.375,4.611,4.611,0,0,1,4.216,3.375,2.55,2.55,0,0,1-2.534,3.375A4.61,4.61,0,0,1,894.366,734.662Z" transform="translate(-870.972 -731.287)"/></g><path class="k" d="M1191.21,978.292H912.739l-43.984-172.6h274.394Z" transform="translate(-816.26 -752.343)"/><g transform="translate(85.122 66.002)"><path class="h" d="M1014.691,869.447c3.3,18.431-8.97,33.373-27.4,33.373s-36.173-14.942-39.628-33.373,8.814-33.373,27.4-33.373S1011.393,851.015,1014.691,869.447Z" transform="translate(-947.079 -836.074)"/></g><g transform="translate(112.568 145.867)"><path class="l" d="M1052.847,1039.516h-30.968a9.666,9.666,0,0,1-8.161-4.351h0c-2.151-3.719.528-7.366,5.42-7.366h31.339c3.375,0,6.678,1.786,8.045,4.351h0C1060.5,1035.868,1057.681,1039.516,1052.847,1039.516Z" transform="translate(-1012.968 -1027.798)"/></g><path class="h" d="M1328.43,904.145H1183.281l-17.858-68.438h143.024Z" transform="translate(-989.348 -769.858)"/><path class="i" d="M1322.149,876.915H1209.661l-1.368-5.126h112.488Z" transform="translate(-1014.36 -790.909)"/><path class="i" d="M1336.086,914.279H1223.6l-1.368-5.126h112.487Z" transform="translate(-1022.491 -812.709)"/><path class="i" d="M1345.807,951.646H1233.32l-1.368-5.126h112.488Z" transform="translate(-1028.163 -834.51)"/><path class="h" d="M1379.528,1088.4H1234.379l-17.858-68.438h143.024Z" transform="translate(-1019.16 -877.361)"/><path class="i" d="M1383.4,1082.4H1270.917l-1.368-5.126h112.488Z" transform="translate(-1050.098 -910.798)"/><path class="i" d="M1397.342,1119.767H1284.854l-1.368-5.126h112.487Z" transform="translate(-1058.23 -932.598)"/></g><g transform="translate(489.344 299.854)"><path class="m" d="M1625.775,653.687H1357.91l-20.528-67.225h267.864Z" transform="translate(-1337.382 -586.462)"/><g transform="translate(22.592 16.298)"><path class="a" d="M1626.693,632.021l2.456,8.04c1.081,3.538-.931,6.433-4.468,6.433H1402.759a9.472,9.472,0,0,1-8.4-6.433l-2.456-8.04c-1.08-3.538.931-6.433,4.469-6.433H1618.3A9.472,9.472,0,0,1,1626.693,632.021Z" transform="translate(-1391.615 -625.588)"/><path class="l" d="M1546.435,625.588l6.385,20.906h-150.06a9.445,9.445,0,0,1-7.639-4.722,7.934,7.934,0,0,1-.758-1.71l-2.456-8.04c-1.08-3.538.931-6.433,4.469-6.433Z" transform="translate(-1391.615 -625.588)"/><path class="n" d="M1427.846,625.588l-6.325,20.906h-13.852a9.445,9.445,0,0,1-7.639-4.722l4.895-16.183Z" transform="translate(-1396.525 -625.588)"/><path class="n" d="M1520.122,625.588l-6.325,20.906H1490.88l6.325-20.906Z" transform="translate(-1449.53 -625.588)"/><path class="n" d="M1614.4,625.588l-6.326,20.906h-22.922l6.326-20.906Z" transform="translate(-1504.532 -625.588)"/><path class="n" d="M1708.685,625.588l-6.326,20.906h-22.921l6.326-20.906Z" transform="translate(-1559.542 -625.588)"/></g><g transform="translate(33.514 46.823)"><path class="l" d="M1458.757,701.63h-40.079l-.844-2.764h40.079Z" transform="translate(-1417.834 -698.866)"/><path class="l" d="M1453.468,720.19h-29.122l-.844-2.764h29.122Z" transform="translate(-1421.141 -709.695)"/><path class="l" d="M1515.974,720.19h-17.407l-.844-2.764h17.407Z" transform="translate(-1464.444 -709.695)"/><path class="l" d="M1574.173,720.19h-26.592l-.844-2.764h26.592Z" transform="translate(-1493.041 -709.695)"/><path class="l" d="M1534.262,701.63h-12.135l-.844-2.764h12.135Z" transform="translate(-1478.19 -698.866)"/><path class="l" d="M1605.356,701.63h-44.127l-.844-2.764h44.128Z" transform="translate(-1501.004 -698.866)"/></g></g><g transform="translate(236.525 518.886)"><path class="m" d="M948.195,1188.983H759.756l-29.29-95.917H918.9Z" transform="translate(-730.466 -1093.066)"/><path class="l" d="M940.414,1145.185H776.878l-10.448-34.849H929.966Z" transform="translate(-750.282 -1097.227)"/><g transform="translate(30.511 25.975)"><path class="h" d="M832.246,1169.6H804.375l-.664-2.175h27.871Z" transform="translate(-803.711 -1167.426)"/><path class="h" d="M910.382,1169.6H887.2l-.664-2.175h23.18Z" transform="translate(-852.035 -1167.426)"/><path class="h" d="M1005.257,1169.6h-47.91l-.664-2.175h47.91Z" transform="translate(-892.96 -1167.426)"/><path class="h" d="M837.958,1188.306H810.087l-.664-2.174h27.871Z" transform="translate(-807.044 -1178.339)"/><path class="h" d="M916.094,1188.306h-23.18l-.664-2.174h23.18Z" transform="translate(-855.368 -1178.339)"/><path class="h" d="M981.813,1188.306h-23.18l-.664-2.174h23.18Z" transform="translate(-893.711 -1178.339)"/><path class="h" d="M1079.046,1190.48h-47.91l-.664-2.175h47.91Z" transform="translate(-936.012 -1179.608)"/></g><g transform="translate(53.807 56.564)"><g transform="translate(67.469)"><path class="l" d="M1037.25,1256.82c-6.386,0-13.169-5.2-15.12-11.582s1.659-11.583,8.046-11.583,13.169,5.2,15.12,11.583S1043.636,1256.82,1037.25,1256.82Zm-6.428-21.049c-5.22,0-8.17,4.247-6.576,9.467s7.138,9.467,12.358,9.467,8.171-4.247,6.576-9.467S1036.042,1235.77,1030.822,1235.77Z" transform="translate(-1021.601 -1233.655)"/><g transform="translate(4.86 6.801)"><path class="l" d="M1042.085,1260.654a2.436,2.436,0,0,1-1.307-.539l-6.568-5.2a1.919,1.919,0,0,1-.706-2.492,1.774,1.774,0,0,1,2.509.055l4.641,3.677,2.281-5.442c.331-.788,1.379-.962,2.341-.394a2.168,2.168,0,0,1,1.145,2.462l-3,7.153a1.215,1.215,0,0,1-1.086.724A1.923,1.923,0,0,1,1042.085,1260.654Z" transform="translate(-1033.269 -1249.981)"/></g></g><g transform="translate(34.328)"><path class="l" d="M957.692,1256.82c-6.386,0-13.169-5.2-15.119-11.582s1.659-11.583,8.045-11.583,13.169,5.2,15.119,11.583S964.078,1256.82,957.692,1256.82Zm-6.428-21.049c-5.22,0-8.17,4.247-6.576,9.467s7.138,9.467,12.358,9.467,8.17-4.247,6.576-9.467S956.485,1235.77,951.264,1235.77Z" transform="translate(-942.044 -1233.655)"/><g transform="translate(4.86 6.801)"><path class="l" d="M962.527,1260.654a2.436,2.436,0,0,1-1.307-.539l-6.568-5.2a1.919,1.919,0,0,1-.706-2.492,1.774,1.774,0,0,1,2.509.055l4.641,3.677,2.282-5.442c.33-.788,1.379-.962,2.341-.394a2.168,2.168,0,0,1,1.145,2.462l-3,7.153a1.214,1.214,0,0,1-1.086.724A1.932,1.932,0,0,1,962.527,1260.654Z" transform="translate(-953.711 -1249.981)"/></g></g><path class="l" d="M875.284,1256.82c-6.386,0-13.169-5.2-15.119-11.582s1.659-11.583,8.045-11.583,13.169,5.2,15.119,11.583S881.671,1256.82,875.284,1256.82Zm-6.428-21.049c-5.22,0-8.17,4.247-6.576,9.467s7.138,9.467,12.358,9.467,8.17-4.247,6.576-9.467S874.077,1235.77,868.856,1235.77Z" transform="translate(-859.636 -1233.655)"/><g transform="translate(4.86 6.801)"><path class="l" d="M880.12,1260.654a2.436,2.436,0,0,1-1.306-.539l-6.568-5.2a1.918,1.918,0,0,1-.706-2.492,1.774,1.774,0,0,1,2.509.055l4.641,3.677,2.281-5.442c.33-.788,1.379-.962,2.342-.394a2.168,2.168,0,0,1,1.145,2.462l-3,7.153a1.215,1.215,0,0,1-1.086.724A1.931,1.931,0,0,1,880.12,1260.654Z" transform="translate(-871.303 -1249.981)"/></g><g transform="translate(98.941)"><path class="l" d="M1112.8,1256.82c-6.386,0-13.169-5.2-15.12-11.582s1.659-11.583,8.046-11.583,13.169,5.2,15.12,11.583S1119.189,1256.82,1112.8,1256.82Zm-6.428-21.049c-5.22,0-8.17,4.247-6.576,9.467s7.138,9.467,12.358,9.467,8.17-4.247,6.576-9.467S1111.595,1235.77,1106.375,1235.77Z" transform="translate(-1097.154 -1233.655)"/><g transform="translate(4.86 6.801)"><path class="l" d="M1117.638,1260.654a2.436,2.436,0,0,1-1.307-.539l-6.568-5.2a1.919,1.919,0,0,1-.706-2.492,1.775,1.775,0,0,1,2.509.055l4.641,3.677,2.281-5.442c.331-.788,1.379-.962,2.342-.394a2.167,2.167,0,0,1,1.145,2.462l-3,7.153a1.215,1.215,0,0,1-1.086.724A1.925,1.925,0,0,1,1117.638,1260.654Z" transform="translate(-1108.822 -1249.981)"/></g></g></g></g><path class="k" d="M1654.769,894.882l-56.812,1.348-19.838-70.168,56.812-1.348,19.838,70.168Z" transform="translate(-988.494 -417.613)"/><path class="h" d="M1657.545,880.914l-.626-2.2-36.267.86.621,2.2Z" transform="translate(-1013.309 -449.12)"/><path class="h" d="M1665.12,908.839l-.626-2.2-35.951.853.621,2.2Z" transform="translate(-1017.912 -465.413)"/><path class="h" d="M1672.685,936.764l-.617-2.2-35.636.845.621,2.2Z" transform="translate(-1022.516 -481.705)"/><path class="k" d="M1707.636,1081.773l-56.812,1.348-19.838-70.168,56.812-1.348,19.838,70.168Z" transform="translate(-1019.338 -526.653)"/><path class="h" d="M1710.412,1067.806l-.626-2.2-36.267.86.621,2.2Z" transform="translate(-1044.154 -558.16)"/><path class="h" d="M1717.986,1095.731l-.626-2.2-35.951.853.621,2.2Z" transform="translate(-1048.758 -574.452)"/><path class="h" d="M1725.552,1123.656l-.617-2.2-35.636.845.621,2.2Z" transform="translate(-1053.361 -590.745)"/><path class="o" d="M10.953,0H584.2" transform="translate(183.5 726.5)"/><g transform="translate(538.309 388.342)"><path class="p" d="M1642.542,957.4s31.374,28.506,32.856,39.235-15.028,27.477-15.028,27.477Z" transform="translate(-1570.534 -900.246)"/><path class="q" d="M1537.49,1719.281s-1.107,15.12-4.446,15.331c-.444.028-16.933,0-16.933,0l-21.049-.147s.149-4.444,6.3-5.372,16.463-4.7,20.208-11.817C1525.513,1709.783,1537.49,1719.281,1537.49,1719.281Z" transform="translate(-1479.658 -1366.7)"/><path class="q" d="M1659.642,1719.513s-1.107,15.12-4.446,15.331c-.445.028-16.933,0-16.933,0l-21.049-.147s.149-4.445,6.3-5.372,16.463-4.7,20.208-11.817C1647.665,1710.015,1659.642,1719.513,1659.642,1719.513Z" transform="translate(-1554.927 -1366.843)"/><path class="r" d="M1545.919,1266.618s5.429,30.866,25.83,85.678,23.141,78.536,23.141,78.536l22.032-.5s.336-59.86-9.059-87.421-1.8-99.3-1.8-99.3Z" transform="translate(-1510.995 -1076.607)"/><path class="n" d="M1518.087,1247.664a657.526,657.526,0,0,0,8.144,103.6c9.039,57.107,5.866,81.335,5.866,81.335l21.986.683s13.281-57.086,9.584-85.668S1581.9,1249.6,1581.9,1249.6Z" transform="translate(-1493.831 -1079.105)"/><path class="s" d="M1583.721,927.464l-11.731,6.709-16.924-2.8c.238-1.2,1.368-6.159,2.4-10.653.062-.265.124-.53.182-.789.881-3.824,1.642-7.109,1.642-7.109l15.827-6.084,5.9-2.268c-.015.081-.467,4.245-.53,4.853A31.62,31.62,0,0,0,1583.721,927.464Z" transform="translate(-1516.632 -867.632)"/><path class="p" d="M1555.513,947.88c.329-.121,20.4-5.27,22.578-4.635s3.458,4.332,3.458,4.332l-32.825,6.438S1551.318,949.419,1555.513,947.88Z" transform="translate(-1512.724 -891.491)"/><path class="t" d="M1584.311,1072.721c-3.433,13.586-60.024,15.09-74.579,2.724-1.656-1.409-1.721-7.952-1.074-16.774,1.267-17.234,5.262-43.155,5.448-56.4a92.538,92.538,0,0,1,2.461-18.877,139.243,139.243,0,0,1,7.234-22.586s27.658-7.778,32.826-6.436C1581.525,960.833,1587.746,1059.134,1584.311,1072.721Z" transform="translate(-1487.801 -898.284)"/><path class="p" d="M1509.27,1101.437c1.267-17.234,5.262-43.155,5.448-56.4a92.53,92.53,0,0,1,2.461-18.877l16.633-2.54S1549.922,1081.834,1509.27,1101.437Z" transform="translate(-1488.412 -941.05)"/><path class="s" d="M1525.246,1160.193a3.145,3.145,0,0,1-1.257,3.965c-2.384,1.589-3.934,4.169-3.393,6.057s5.753,4.977,7.564,4.483,5.5-2.971,5.106-3.967,2.5-8.731-1.905-11.718S1525.246,1160.193,1525.246,1160.193Z" transform="translate(-1495.325 -1023.814)"/><path class="t" d="M1503.63,962.365s-16.222,2.628-29.182,19.289-21.493,29.05-19.127,35.068,24.008,26.917,27.748,26.924,9.781-2.365,10.135-7.728c0,0-15.224-20.09-12.208-23.089,1.289-1.282,19.865-14.439,22.5-8.475C1507.85,1014.222,1503.63,962.365,1503.63,962.365Z" transform="translate(-1454.927 -903.306)"/><path class="u" d="M1583.146,913.152c-3.484,5.148-16.436,9.581-21.836,11.209.062-.265.124-.53.183-.789.881-3.824,1.642-7.109,1.642-7.109l15.827-6.084C1582.458,910.344,1584.584,911.033,1583.146,913.152Z" transform="translate(-1520.479 -871.272)"/><path class="s" d="M1545.464,865.066s25.454,7.012,30.193-6.947,11.215-22.454-4.836-27.521-21.031-.568-23.906,3.754S1538.965,862.883,1545.464,865.066Z" transform="translate(-1508.767 -820.729)"/><path class="v" d="M1553.111,820.769s1.585,16.257,5.422,15.558,7.317-1.215,6.743,3.684-5.906,10.546,5.912,11.435,28.884-23.986,25.65-29.05C1593.294,798.426,1539.613,802.939,1553.111,820.769Z" transform="translate(-1513.96 -808.489)"/></g></g></svg>