<?xml version="1.0" standalone="no"?>
<!DOCTYPE svg PUBLIC "-//W3C//DTD SVG 20010904//EN"
 "http://www.w3.org/TR/2001/REC-SVG-20010904/DTD/svg10.dtd">
<svg version="1.0" xmlns="http://www.w3.org/2000/svg"
 width="1200px" height="50.000000pt" viewBox="0 0 300.000000 300.000000"
 preserveAspectRatio="xMidYMid meet">
<metadata>
Created by potrace 1.10, written by Peter Selinger 2001-2011
</metadata>
<g transform="translate(0.000000,300.000000) scale(0.100000,-0.100000)"
fill="#000000" stroke="none">
<path d="M840 2220 c-113 -18 -219 -73 -286 -148 -44 -50 -84 -143 -90 -213
-10 -97 15 -170 76 -231 l47 -48 77 0 76 0 0 -63 c0 -53 4 -67 23 -85 28 -26
73 -28 99 -5 18 16 21 16 47 0 37 -21 65 -21 102 0 26 16 29 16 47 0 23 -21
65 -22 96 -1 16 10 26 12 31 5 3 -6 15 -11 25 -11 16 0 17 -4 8 -28 -9 -24 -7
-35 18 -78 25 -41 29 -60 29 -119 0 -58 -4 -76 -24 -103 -60 -85 -161 -126
-311 -125 -159 1 -267 57 -327 168 -37 69 -64 95 -102 95 -34 0 -71 -37 -71
-71 0 -13 13 -53 30 -87 76 -161 261 -262 480 -262 206 0 368 81 446 222 27
50 29 60 29 163 0 101 -2 115 -27 164 -25 47 -26 55 -13 73 9 13 11 27 6 37
-5 9 -5 25 -1 36 6 17 8 15 15 -15 8 -39 31 -70 51 -70 20 0 44 41 44 73 0 25
2 28 15 17 8 -7 15 -18 15 -24 0 -6 7 -24 15 -40 14 -26 14 -31 0 -46 -53 -58
39 -333 148 -442 194 -193 537 -197 723 -8 80 81 144 199 144 264 0 31 -40 66
-76 66 -43 0 -68 -22 -89 -77 -44 -116 -128 -199 -228 -224 -26 -6 -84 -10
-130 -7 -179 10 -285 102 -332 288 -9 36 -21 82 -26 102 -7 26 -19 43 -39 53
l-29 15 16 48 c8 26 17 63 20 82 3 19 11 42 18 50 7 8 18 48 24 87 21 137 61
223 132 287 71 65 118 80 244 81 100 0 114 -3 160 -27 70 -37 119 -91 156
-173 41 -92 54 -105 100 -105 53 0 82 32 76 82 -15 116 -136 271 -258 332
-157 79 -375 69 -519 -24 -143 -92 -248 -296 -253 -493 -2 -55 -5 -66 -17 -61
-34 13 -79 15 -99 5 -16 -9 -31 -9 -61 0 -33 10 -43 9 -65 -5 -20 -13 -30 -14
-46 -6 -15 9 -24 8 -35 0 -11 -10 -22 -9 -53 3 -36 15 -41 15 -76 -4 -34 -19
-38 -19 -55 -4 -23 21 -73 22 -102 3 -21 -14 -26 -13 -63 6 -22 11 -47 29 -56
39 -8 11 -40 34 -70 51 -71 42 -99 84 -99 149 0 121 86 203 239 229 82 14 186
1 250 -31 68 -35 131 -124 131 -188 0 -6 14 -23 32 -38 37 -32 82 -29 111 7
54 65 -53 270 -180 344 -93 55 -246 82 -363 64z m235 -52 c66 -17 135 -57 187
-109 56 -56 86 -116 95 -189 l6 -50 -40 0 c-40 0 -40 0 -46 45 -25 176 -226
281 -449 234 -75 -16 -137 -50 -185 -101 -51 -56 -66 -102 -61 -183 6 -97 37
-128 188 -193 19 -8 1 -9 -75 -5 -112 6 -129 15 -168 88 -32 58 -30 191 2 257
86 178 315 264 546 206z m1076 12 c120 -22 241 -105 303 -208 26 -44 66 -145
66 -169 0 -2 -20 -3 -45 -3 -37 0 -45 3 -45 19 0 38 -71 160 -116 200 -83 73
-122 86 -259 86 -108 0 -125 -3 -175 -26 -30 -14 -70 -38 -88 -54 -74 -62
-133 -186 -152 -322 l-12 -83 -39 0 c-47 0 -47 3 -19 140 22 106 70 213 124
276 99 116 289 175 457 144z m-1307 -616 c17 -7 22 -34 6 -34 -5 0 -10 5 -10
10 0 6 -11 10 -25 10 -36 0 -31 -17 10 -34 36 -16 46 -41 23 -64 -17 -17 -54
-15 -73 4 -22 22 -10 30 20 14 18 -10 28 -11 36 -3 16 16 4 29 -31 36 -23 5
-30 12 -30 30 0 13 3 27 7 30 8 9 46 9 67 1z m154 -6 c17 -17 15 -78 -5 -100
-34 -37 -93 -8 -93 47 0 51 65 86 98 53z m148 -5 c13 -13 14 -18 3 -22 -7 -2
-15 1 -17 8 -2 6 -14 11 -27 11 -26 0 -37 -32 -24 -68 10 -25 37 -29 45 -7 4
8 12 15 20 15 18 0 18 -9 -3 -32 -22 -25 -59 -23 -77 4 -45 64 26 144 80 91z
m74 -48 c0 -37 -4 -65 -10 -65 -6 0 -10 28 -10 65 0 37 4 65 10 65 6 0 10 -28
10 -65z m140 55 c0 -5 -13 -10 -29 -10 -16 0 -31 -6 -35 -15 -4 -11 2 -15 24
-15 17 0 30 -4 30 -10 0 -5 -13 -10 -29 -10 -24 0 -28 -3 -24 -20 4 -14 14
-20 34 -20 16 0 29 -5 29 -11 0 -6 -17 -9 -42 -7 -24 2 -42 6 -40 11 1 4 2 32
2 62 l0 55 40 0 c22 0 40 -4 40 -10z m130 0 c0 -5 -9 -10 -21 -10 -18 0 -20
-5 -18 -52 2 -33 -1 -53 -9 -56 -8 -2 -12 13 -12 52 0 49 -2 56 -20 56 -11 0
-20 5 -20 10 0 6 23 10 50 10 28 0 50 -4 50 -10z m62 -15 c6 -14 14 -25 18
-25 4 0 12 11 18 25 6 14 16 25 22 25 15 0 12 -12 -10 -40 -11 -14 -20 -40
-20 -57 0 -18 -4 -33 -10 -33 -5 0 -10 15 -10 33 0 17 -9 43 -20 57 -22 28
-25 40 -10 40 6 0 16 -11 22 -25z m-205 -184 c41 -56 49 -217 15 -293 -91
-204 -435 -283 -689 -158 -80 39 -164 129 -192 205 -12 31 -21 60 -21 65 0 6
18 10 40 10 30 0 42 -5 46 -17 43 -136 156 -223 320 -246 198 -27 399 63 435
197 17 61 5 148 -25 201 -15 25 -31 45 -36 45 -6 0 -10 4 -10 9 0 15 104 -1
117 -18z m300 -64 c31 -185 129 -309 278 -352 80 -24 232 -17 297 12 92 41
173 138 200 237 12 46 12 46 55 46 42 0 43 -1 37 -27 -61 -249 -279 -393 -537
-355 -236 34 -372 191 -422 485 l-6 38 42 -3 43 -3 13 -78z"/>
<path d="M931 1529 c-9 -25 -4 -56 10 -65 5 -3 18 -2 30 1 16 5 20 14 17 43
-2 30 -8 38 -26 40 -16 2 -25 -3 -31 -19z"/>
<path d="M1753 1602 c-63 -10 -86 -117 -36 -166 23 -23 33 -27 63 -21 53 9
361 12 366 3 10 -16 81 -8 95 10 15 17 19 138 5 160 -11 18 -66 22 -97 6 -20
-10 -35 -12 -42 -6 -7 5 -26 13 -43 16 -25 6 -38 2 -63 -20 l-32 -27 -23 22
c-28 27 -44 27 -73 -1 l-23 -21 -22 20 c-27 24 -45 30 -75 25z m57 -47 c17
-21 7 -29 -18 -14 -31 19 -54 5 -50 -32 4 -42 34 -61 53 -35 18 23 34 12 19
-12 -15 -24 -52 -27 -75 -6 -21 19 -25 64 -9 95 13 23 62 26 80 4z m134 -37
c9 -29 20 -59 23 -65 2 -7 -1 -13 -7 -13 -7 0 -14 9 -17 20 -3 13 -14 20 -28
20 -15 0 -26 -8 -30 -20 -6 -20 -25 -28 -25 -11 0 23 44 121 55 121 6 0 19
-24 29 -52z m155 33 c7 -13 6 -24 -3 -37 -12 -16 -12 -23 0 -46 12 -22 12 -28
1 -28 -7 0 -18 14 -24 30 -14 38 -45 41 -41 4 2 -15 -3 -29 -9 -31 -10 -4 -13
13 -13 61 l0 66 40 0 c28 0 42 -5 49 -19z m141 9 c0 -5 -16 -10 -35 -10 -24 0
-35 -5 -35 -15 0 -10 10 -15 30 -15 17 0 30 -4 30 -10 0 -5 -13 -10 -30 -10
-23 0 -30 -4 -30 -20 0 -16 7 -20 35 -20 19 0 35 -4 35 -10 0 -5 -20 -10 -45
-10 l-45 0 0 65 0 65 45 0 c25 0 45 -4 45 -10z"/>
<path d="M2030 1529 c0 -15 5 -20 22 -17 34 5 37 38 4 38 -20 0 -26 -5 -26
-21z"/>
</g>
</svg>
