<?xml version="1.0" standalone="no"?>
<!DOCTYPE svg PUBLIC "-//W3C//DTD SVG 20010904//EN"
 "http://www.w3.org/TR/2001/REC-SVG-20010904/DTD/svg10.dtd">
<svg version="1.0" xmlns="http://www.w3.org/2000/svg"
 width="300.000000pt" height="300.000000pt" viewBox="0 0 300.000000 300.000000"
 preserveAspectRatio="xMidYMid meet">
<metadata>
Created by potrace 1.10, written by Peter Selinger 2001-2011
</metadata>
<g transform="translate(0.000000,300.000000) scale(0.100000,-0.100000)"
fill="#000000" stroke="none">
<path d="M1465 2071 c-33 -9 -92 -34 -130 -54 -140 -74 -205 -151 -205 -244 0
-91 43 -163 122 -204 48 -25 71 -24 103 4 26 22 27 26 30 162 l4 140 47 43
c58 53 137 79 189 62 19 -6 37 -20 40 -30 8 -27 -43 -124 -140 -265 -98 -143
-112 -169 -126 -234 -24 -112 53 -221 155 -221 26 0 40 6 51 23 14 21 14 31 0
99 -12 57 -13 81 -5 104 6 16 55 72 109 124 106 103 161 192 161 259 0 45 -48
147 -86 183 -72 67 -193 86 -319 49z m210 -16 c33 -9 67 -23 75 -32 16 -17 17
-17 -51 10 -14 6 -34 7 -44 3 -17 -6 -15 -9 13 -26 18 -11 32 -27 32 -35 0
-21 -6 -19 -46 11 -30 23 -41 26 -84 21 -57 -7 -96 -25 -145 -69 -52 -45 -67
-79 -59 -136 9 -68 -11 -193 -33 -210 -10 -7 -19 -9 -21 -4 -1 5 -14 7 -27 4
-14 -2 -25 0 -25 6 0 5 -11 13 -24 16 -31 8 -74 81 -82 139 -9 65 23 122 106
189 59 47 140 87 217 108 85 22 128 23 198 5z m81 -66 c30 -18 34 -26 34 -62
0 -26 -10 -61 -25 -90 -14 -26 -21 -47 -16 -47 11 0 43 47 57 85 6 17 15 30
19 30 15 0 25 -59 15 -87 -5 -16 -7 -28 -5 -28 6 0 -26 -58 -56 -102 -13 -18
-55 -62 -95 -98 -42 -38 -81 -83 -94 -110 -12 -25 -25 -51 -29 -59 -4 -8 -3
-39 2 -68 8 -46 7 -57 -8 -74 -23 -24 -46 -24 -76 0 -29 23 -20 38 11 19 18
-11 23 -11 36 6 8 11 14 38 13 60 l0 41 -16 -42 c-13 -33 -22 -42 -45 -45 -17
-3 -33 1 -40 9 -20 24 -22 118 -4 164 15 38 109 186 125 199 10 8 87 140 118
202 15 32 32 58 37 58 5 0 6 -34 3 -77 -5 -72 -4 -76 9 -51 27 51 29 113 6
152 -25 42 -22 44 24 15z"/>
<path d="M1454 1166 c-43 -19 -64 -53 -64 -102 0 -54 32 -101 90 -132 59 -31
111 -26 154 17 26 26 31 39 30 75 -1 59 -36 113 -88 137 -48 22 -80 23 -122 5z
m116 -25 c14 -4 24 -13 22 -20 -1 -6 9 -28 23 -49 14 -20 25 -46 25 -57 0 -30
-25 -61 -58 -73 -31 -11 -59 -1 -48 16 4 6 -5 12 -21 14 -16 2 -32 12 -38 25
-10 19 -12 20 -22 5 -9 -15 -12 -13 -27 15 -23 46 -20 70 13 104 31 30 73 37
131 20z"/>
<path d="M1495 1015 c11 -9 28 -21 38 -26 16 -9 17 -8 5 10 -7 12 -16 21 -20
21 -3 0 -15 3 -25 6 -16 5 -16 4 2 -11z"/>
</g>
</svg>
